<!-- <svg xmlns="http://www.w3.org/2000/svg" viewBox="0 0 1440 320">
  <path fill="#a2d9ff" fill-opacity="1" d="M0,0L40,10.7C80,21,160,43,240,64C320,85,400,107,480,149.3C560,192,640,256,720,282.7C800,309,880,299,960,261.3C1040,224,1120,160,1200,117.3C1280,75,1360,53,1400,42.7L1440,32L1440,320L1400,320C1360,320,1280,320,1200,320C1120,320,1040,320,960,320C880,320,800,320,720,320C640,320,560,320,480,320C400,320,320,320,240,320C160,320,80,320,40,320L0,320Z"></path>
</svg> -->

<svg xmlns="http://www.w3.org/2000/svg" viewBox="0 0 1440 320">
  <path fill="#a2d9ff" fill-opacity="1" d="M0,32L40,42.7C80,53,160,75,240,101.3C320,128,400,160,480,192C560,224,640,256,720,245.3C800,235,880,181,960,160C1040,139,1120,149,1200,138.7C1280,128,1360,96,1400,80L1440,64L1440,320L1400,320C1360,320,1280,320,1200,320C1120,320,1040,320,960,320C880,320,800,320,720,320C640,320,560,320,480,320C400,320,320,320,240,320C160,320,80,320,40,320L0,320Z"></path>
</svg>